<svg width="20" height="22" viewBox="0 0 17 18" fill="none" xmlns="http://www.w3.org/2000/svg">
<path d="M2.19409 7.36842C2.19409 4.36651 2.19409 2.86515 3.12707 1.93297C4.06004 1.0008 5.5606 1 8.56251 1H9.75659C12.7585 1 14.2599 1 15.192 1.93297C16.1242 2.86595 16.125 4.36651 16.125 7.36842V10.5526C16.125 13.5545 16.125 15.0559 15.192 15.9881C14.2591 16.9203 12.7585 16.9211 9.75659 16.9211H8.56251C5.5606 16.9211 4.05924 16.9211 3.12707 15.9881C2.19489 15.0551 2.19409 13.5545 2.19409 10.5526V7.36842Z" stroke="#BFBFBF"  stroke-linecap="round" stroke-linejoin="round"/>
<path d="M6.81118 8.93983C6.47127 8.34757 6.30728 7.86436 6.20857 7.37399C6.0621 6.64959 6.39724 5.9411 6.95129 5.48894C7.18612 5.29789 7.45439 5.36317 7.59291 5.61233L7.90576 6.17355C8.15333 6.61774 8.27751 6.84064 8.25284 7.07627C8.22895 7.3119 8.06178 7.50375 7.72744 7.88824L6.81118 8.93983ZM6.81118 8.93983C7.52772 10.1676 8.54946 11.1894 9.77728 11.9059M9.77728 11.9059C10.3695 12.2458 10.8527 12.4098 11.3431 12.5085C12.0675 12.655 12.776 12.3199 13.2282 11.7658C13.4192 11.531 13.3539 11.2627 13.1048 11.1242L12.5444 10.8113C12.0986 10.5638 11.8765 10.4396 11.6408 10.4643C11.4052 10.4882 11.2134 10.6553 10.8289 10.9897L9.77728 11.9059ZM2.99013 4.18421H1M2.99013 8.96053H1M2.99013 13.7368H1" stroke="#BFBFBF" stroke-linecap="round" stroke-linejoin="round"/>
</svg>
